<svg width="346" height="62" viewBox="0 0 346 62" fill="none" xmlns="http://www.w3.org/2000/svg">
<path d="M20.4189 61.9365C10.0434 61.9365 2.07509 55.7844 0 48.9672L9.87741 46.0575C11.2885 50.048 15.2726 53.0409 20.8339 53.0409C25.067 53.0409 27.8062 51.0456 27.8062 48.7178C27.8062 46.6394 26.2291 45.4755 23.158 44.561L12.4505 41.4018C6.47427 39.656 2.07509 36.1643 2.07509 30.1784C2.07509 23.1119 9.71141 17.5417 18.9248 17.5417C27.9722 17.5417 34.8615 21.8648 37.5176 28.1832L27.8062 31.0098C26.3121 28.3495 23.241 26.1048 18.8418 26.1048C15.4386 26.1048 12.8655 27.9338 12.8655 29.929C12.8655 31.5918 14.0276 32.5894 16.3517 33.2545L26.8101 36.2474C33.1184 38.0764 38.5966 40.6536 38.5966 48.219C38.5966 56.117 31.1263 61.9365 20.4189 61.9365ZM61.6093 61.9365C48.6608 61.9365 39.1154 52.2927 39.1154 39.7391C39.1154 27.1024 48.6608 17.5417 61.6093 17.5417C74.5579 17.5417 84.0203 27.1024 84.0203 39.7391C84.0203 52.2927 74.5579 61.9365 61.6093 61.9365ZM61.6093 51.9601C68.5816 51.9601 73.3958 46.7226 73.3958 39.7391C73.3958 32.7557 68.5816 27.5181 61.6093 27.5181C54.554 27.5181 49.8228 32.7557 49.8228 39.7391C49.8228 46.7226 54.554 51.9601 61.6093 51.9601ZM106.784 61.9365C93.9184 61.9365 84.456 52.2927 84.456 39.656C84.456 27.1024 93.9184 17.5417 106.701 17.5417C118.321 17.5417 125.543 25.024 127.203 31.3424L116.993 34.2521C116.08 30.7604 112.179 27.2687 106.701 27.2687C99.7287 27.2687 95.2465 33.0051 95.2465 39.656C95.2465 46.2237 99.7287 52.1264 106.701 52.1264C112.179 52.1264 116.08 48.8841 116.993 45.3924L127.203 48.219C125.543 54.6205 118.321 61.9365 106.784 61.9365ZM135.441 12.803C131.789 12.803 128.884 9.97635 128.884 6.31835C128.884 2.82663 131.789 0 135.441 0C139.093 0 141.998 2.82663 141.998 6.31835C141.998 9.97635 139.093 12.803 135.441 12.803ZM129.797 60.7726V18.7057H140.836V60.7726H129.797ZM164.679 61.9365C153.058 61.9365 143.928 52.459 143.928 39.7391C143.928 26.9361 153.058 17.5417 164.679 17.5417C170.572 17.5417 175.22 19.9527 178.208 23.777V18.7057H189.248V60.7726H178.208V55.6181C175.22 59.4424 170.572 61.9365 164.679 61.9365ZM166.588 52.1264C173.228 52.1264 178.54 46.972 178.54 39.656C178.54 32.4231 173.228 27.3518 166.588 27.3518C159.699 27.3518 154.801 32.4231 154.801 39.656C154.801 46.972 159.699 52.1264 166.588 52.1264ZM194.747 60.7726V0.0831361H205.703V60.7726H194.747ZM226.33 60.7726V0.0831361H237.286V60.7726H226.33ZM248.346 12.803C244.694 12.803 241.789 9.97635 241.789 6.31835C241.789 2.82663 244.694 0 248.346 0C251.999 0 254.904 2.82663 254.904 6.31835C254.904 9.97635 251.999 12.803 248.346 12.803ZM242.702 60.7726V18.7057H253.742V60.7726H242.702ZM283.893 17.5417C294.849 17.5417 300.41 24.9409 300.41 36.1643V60.7726H289.454V38.2427C289.454 31.8412 286.549 27.7675 280.489 27.7675C274.347 27.7675 270.363 32.5894 270.363 39.9885V60.7726H259.407V18.7057H270.363V24.0264C273.268 20.2852 277.833 17.5417 283.893 17.5417ZM333.549 60.7726L321.348 44.561L316.451 50.048V60.7726H305.494V0.0831361H316.451V36.0811L331.557 18.7057H344.34L328.237 36.8293L346 60.7726H333.549Z" fill="#FF677E"/>
</svg>
