<svg width="350" height="63" viewBox="0 0 350 63" fill="none" xmlns="http://www.w3.org/2000/svg">
<path d="M20.6549 62.5525C10.1595 62.5525 2.09908 56.3392 0 49.4542L9.9916 46.5155C11.419 50.5458 15.4492 53.5684 21.0747 53.5684C25.3568 53.5684 28.1276 51.5533 28.1276 49.2024C28.1276 47.1033 26.5323 45.9278 23.4257 45.0042L12.5945 41.8136C6.54912 40.0504 2.09908 36.5239 2.09908 30.4786C2.09908 23.3417 9.82368 17.7162 19.1436 17.7162C28.2955 17.7162 35.2645 22.0823 37.9513 28.4635L28.1276 31.3182C26.6163 28.6314 23.5097 26.3644 19.0596 26.3644C15.6171 26.3644 13.0143 28.2116 13.0143 30.2267C13.0143 31.906 14.1898 32.9135 16.5407 33.5852L27.1201 36.6079C33.5013 38.4551 39.0428 41.0579 39.0428 48.6986C39.0428 56.6751 31.4861 62.5525 20.6549 62.5525ZM62.3216 62.5525C49.2233 62.5525 39.5676 52.8128 39.5676 40.1343C39.5676 27.372 49.2233 17.7162 62.3216 17.7162C75.4198 17.7162 84.9916 27.372 84.9916 40.1343C84.9916 52.8128 75.4198 62.5525 62.3216 62.5525ZM62.3216 52.4769C69.3745 52.4769 74.2443 47.1872 74.2443 40.1343C74.2443 33.0814 69.3745 27.7918 62.3216 27.7918C55.1847 27.7918 50.3988 33.0814 50.3988 40.1343C50.3988 47.1872 55.1847 52.4769 62.3216 52.4769ZM108.018 62.5525C95.0042 62.5525 85.4324 52.8128 85.4324 40.0504C85.4324 27.372 95.0042 17.7162 107.935 17.7162C119.689 17.7162 126.994 25.2729 128.673 31.6541L118.346 34.5928C117.422 31.0663 113.476 27.5399 107.935 27.5399C100.882 27.5399 96.3476 33.3333 96.3476 40.0504C96.3476 46.6835 100.882 52.6448 107.935 52.6448C113.476 52.6448 117.422 49.3703 118.346 45.8438L128.673 48.6986C126.994 55.1637 119.689 62.5525 108.018 62.5525ZM137.007 12.9303C133.312 12.9303 130.374 10.0756 130.374 6.38119C130.374 2.85474 133.312 0 137.007 0C140.701 0 143.64 2.85474 143.64 6.38119C143.64 10.0756 140.701 12.9303 137.007 12.9303ZM131.297 61.377V18.8917H142.464V61.377H131.297ZM166.583 62.5525C154.828 62.5525 145.592 52.9807 145.592 40.1343C145.592 27.204 154.828 17.7162 166.583 17.7162C172.544 17.7162 177.246 20.1511 180.269 24.0134V18.8917H191.436V61.377H180.269V56.1713C177.246 60.0336 172.544 62.5525 166.583 62.5525ZM168.514 52.6448C175.231 52.6448 180.605 47.4391 180.605 40.0504C180.605 32.7456 175.231 27.6238 168.514 27.6238C161.545 27.6238 156.591 32.7456 156.591 40.0504C156.591 47.4391 161.545 52.6448 168.514 52.6448ZM196.998 61.377V0.083963H208.081V61.377H196.998ZM228.946 61.377V0.083963H240.029V61.377H228.946ZM251.217 12.9303C247.523 12.9303 244.584 10.0756 244.584 6.38119C244.584 2.85474 247.523 0 251.217 0C254.912 0 257.851 2.85474 257.851 6.38119C257.851 10.0756 254.912 12.9303 251.217 12.9303ZM245.508 61.377V18.8917H256.675V61.377H245.508ZM287.175 17.7162C298.258 17.7162 303.883 25.1889 303.883 36.5239V61.377H292.8V38.623C292.8 32.1578 289.861 28.0437 283.732 28.0437C277.519 28.0437 273.489 32.9135 273.489 40.3862V61.377H262.406V18.8917H273.489V24.2653C276.427 20.487 281.045 17.7162 287.175 17.7162ZM337.406 61.377L325.063 45.0042L320.109 50.5458V61.377H309.026V0.083963H320.109V36.44L335.39 18.8917H348.321L332.032 37.1956L350 61.377H337.406Z" fill="white"/>
</svg>
